<mxfile host="app.diagrams.net" agent="Mozilla/5.0 (Windows NT 10.0; Win64; x64) AppleWebKit/537.36 (KHTML, like Gecko) Chrome/140.0.0.0 Safari/537.36" version="28.2.3">
  <diagram name="Seite-1" id="bBPEoiWWsDdAgz30WFgp">
    <mxGraphModel dx="1426" dy="777" grid="1" gridSize="10" guides="1" tooltips="1" connect="1" arrows="1" fold="1" page="1" pageScale="1" pageWidth="827" pageHeight="1169" math="0" shadow="0">
      <root>
        <mxCell id="0" />
        <mxCell id="1" parent="0" />
        <mxCell id="-gJhRWIWG7KXT5Eeaf7t-4" style="edgeStyle=orthogonalEdgeStyle;rounded=0;orthogonalLoop=1;jettySize=auto;html=1;exitX=0.5;exitY=1;exitDx=0;exitDy=0;entryX=0.5;entryY=0;entryDx=0;entryDy=0;" edge="1" parent="1" source="-gJhRWIWG7KXT5Eeaf7t-1" target="-gJhRWIWG7KXT5Eeaf7t-2">
          <mxGeometry relative="1" as="geometry" />
        </mxCell>
        <mxCell id="-gJhRWIWG7KXT5Eeaf7t-1" value="Start" style="rounded=1;whiteSpace=wrap;html=1;" vertex="1" parent="1">
          <mxGeometry x="354" y="20" width="120" height="60" as="geometry" />
        </mxCell>
        <mxCell id="-gJhRWIWG7KXT5Eeaf7t-5" style="edgeStyle=orthogonalEdgeStyle;rounded=0;orthogonalLoop=1;jettySize=auto;html=1;exitX=0.5;exitY=1;exitDx=0;exitDy=0;entryX=0.5;entryY=0;entryDx=0;entryDy=0;" edge="1" parent="1" source="-gJhRWIWG7KXT5Eeaf7t-2" target="-gJhRWIWG7KXT5Eeaf7t-3">
          <mxGeometry relative="1" as="geometry" />
        </mxCell>
        <mxCell id="-gJhRWIWG7KXT5Eeaf7t-2" value="E: Passwort = a" style="shape=parallelogram;perimeter=parallelogramPerimeter;whiteSpace=wrap;html=1;fixedSize=1;" vertex="1" parent="1">
          <mxGeometry x="354" y="110" width="120" height="60" as="geometry" />
        </mxCell>
        <mxCell id="-gJhRWIWG7KXT5Eeaf7t-6" style="edgeStyle=orthogonalEdgeStyle;rounded=0;orthogonalLoop=1;jettySize=auto;html=1;exitX=0;exitY=0.5;exitDx=0;exitDy=0;entryX=0;entryY=0.5;entryDx=0;entryDy=0;" edge="1" parent="1" source="-gJhRWIWG7KXT5Eeaf7t-3" target="-gJhRWIWG7KXT5Eeaf7t-2">
          <mxGeometry relative="1" as="geometry">
            <mxPoint x="300" y="240" as="targetPoint" />
            <Array as="points">
              <mxPoint x="270" y="285" />
              <mxPoint x="270" y="140" />
            </Array>
          </mxGeometry>
        </mxCell>
        <mxCell id="-gJhRWIWG7KXT5Eeaf7t-9" style="edgeStyle=orthogonalEdgeStyle;rounded=0;orthogonalLoop=1;jettySize=auto;html=1;exitX=0.5;exitY=1;exitDx=0;exitDy=0;entryX=0;entryY=0;entryDx=0;entryDy=0;" edge="1" parent="1" source="-gJhRWIWG7KXT5Eeaf7t-3" target="-gJhRWIWG7KXT5Eeaf7t-8">
          <mxGeometry relative="1" as="geometry">
            <Array as="points">
              <mxPoint x="414" y="390" />
            </Array>
          </mxGeometry>
        </mxCell>
        <mxCell id="-gJhRWIWG7KXT5Eeaf7t-3" value="a &amp;gt; 8 Zeichen und&lt;div&gt;Groß-&lt;/div&gt;&lt;div&gt;und Kleinbuchstaben&lt;/div&gt;&lt;div&gt;und (eine Zahl oder ein Sonderzeichen)&lt;/div&gt;" style="rhombus;whiteSpace=wrap;html=1;" vertex="1" parent="1">
          <mxGeometry x="331" y="200" width="166" height="170" as="geometry" />
        </mxCell>
        <mxCell id="-gJhRWIWG7KXT5Eeaf7t-7" value="false" style="text;html=1;align=center;verticalAlign=middle;resizable=0;points=[];autosize=1;strokeColor=none;fillColor=none;" vertex="1" parent="1">
          <mxGeometry x="280" y="200" width="50" height="30" as="geometry" />
        </mxCell>
        <mxCell id="-gJhRWIWG7KXT5Eeaf7t-12" style="edgeStyle=orthogonalEdgeStyle;rounded=0;orthogonalLoop=1;jettySize=auto;html=1;exitX=0.5;exitY=1;exitDx=0;exitDy=0;entryX=1;entryY=0.5;entryDx=0;entryDy=0;" edge="1" parent="1" source="-gJhRWIWG7KXT5Eeaf7t-8" target="-gJhRWIWG7KXT5Eeaf7t-14">
          <mxGeometry relative="1" as="geometry" />
        </mxCell>
        <mxCell id="-gJhRWIWG7KXT5Eeaf7t-8" value="A: Dieses Passwort entspricht den Sicherheitsregeln" style="rounded=0;whiteSpace=wrap;html=1;" vertex="1" parent="1">
          <mxGeometry x="480" y="390" width="120" height="60" as="geometry" />
        </mxCell>
        <mxCell id="-gJhRWIWG7KXT5Eeaf7t-10" value="true" style="text;html=1;align=center;verticalAlign=middle;resizable=0;points=[];autosize=1;strokeColor=none;fillColor=none;" vertex="1" parent="1">
          <mxGeometry x="434" y="360" width="40" height="30" as="geometry" />
        </mxCell>
        <mxCell id="-gJhRWIWG7KXT5Eeaf7t-11" value="Ende" style="rounded=1;whiteSpace=wrap;html=1;" vertex="1" parent="1">
          <mxGeometry x="354" y="570" width="120" height="60" as="geometry" />
        </mxCell>
        <mxCell id="-gJhRWIWG7KXT5Eeaf7t-15" style="edgeStyle=orthogonalEdgeStyle;rounded=0;orthogonalLoop=1;jettySize=auto;html=1;exitX=0.5;exitY=1;exitDx=0;exitDy=0;entryX=0;entryY=0;entryDx=0;entryDy=0;" edge="1" parent="1" source="-gJhRWIWG7KXT5Eeaf7t-14" target="-gJhRWIWG7KXT5Eeaf7t-11">
          <mxGeometry relative="1" as="geometry">
            <Array as="points">
              <mxPoint x="350" y="470" />
              <mxPoint x="350" y="570" />
            </Array>
          </mxGeometry>
        </mxCell>
        <mxCell id="-gJhRWIWG7KXT5Eeaf7t-18" style="edgeStyle=orthogonalEdgeStyle;rounded=0;orthogonalLoop=1;jettySize=auto;html=1;exitX=0.5;exitY=1;exitDx=0;exitDy=0;entryX=0.5;entryY=0;entryDx=0;entryDy=0;" edge="1" parent="1" source="-gJhRWIWG7KXT5Eeaf7t-14" target="-gJhRWIWG7KXT5Eeaf7t-16">
          <mxGeometry relative="1" as="geometry" />
        </mxCell>
        <mxCell id="-gJhRWIWG7KXT5Eeaf7t-14" value="a &amp;gt; 14 Zeichen und&lt;div&gt;Groß-&lt;/div&gt;&lt;div&gt;und Kleinbuchstaben&lt;/div&gt;&lt;div&gt;und eine Zahl und ein Sonderzeichen&lt;/div&gt;" style="rhombus;whiteSpace=wrap;html=1;" vertex="1" parent="1">
          <mxGeometry x="114" y="300" width="166" height="170" as="geometry" />
        </mxCell>
        <mxCell id="-gJhRWIWG7KXT5Eeaf7t-17" style="edgeStyle=orthogonalEdgeStyle;rounded=0;orthogonalLoop=1;jettySize=auto;html=1;exitX=1;exitY=0.5;exitDx=0;exitDy=0;entryX=0;entryY=0.5;entryDx=0;entryDy=0;" edge="1" parent="1" source="-gJhRWIWG7KXT5Eeaf7t-16" target="-gJhRWIWG7KXT5Eeaf7t-11">
          <mxGeometry relative="1" as="geometry">
            <mxPoint x="320" y="470" as="targetPoint" />
          </mxGeometry>
        </mxCell>
        <mxCell id="-gJhRWIWG7KXT5Eeaf7t-16" value="A: Dieses Passwort ist sogar sehr sicher." style="rounded=0;whiteSpace=wrap;html=1;" vertex="1" parent="1">
          <mxGeometry x="137" y="525" width="120" height="60" as="geometry" />
        </mxCell>
        <mxCell id="-gJhRWIWG7KXT5Eeaf7t-19" value="false" style="text;html=1;align=center;verticalAlign=middle;resizable=0;points=[];autosize=1;strokeColor=none;fillColor=none;" vertex="1" parent="1">
          <mxGeometry x="257" y="440" width="50" height="30" as="geometry" />
        </mxCell>
        <mxCell id="-gJhRWIWG7KXT5Eeaf7t-20" value="true" style="text;strokeColor=none;align=center;fillColor=none;html=1;verticalAlign=middle;whiteSpace=wrap;rounded=0;" vertex="1" parent="1">
          <mxGeometry x="137" y="480" width="60" height="30" as="geometry" />
        </mxCell>
      </root>
    </mxGraphModel>
  </diagram>
</mxfile>
